<svg width="312" height="100" viewBox="0 0 312 100" fill="none" xmlns="http://www.w3.org/2000/svg">
  <path d="M20 36C20 28 32 25 50 34C68 25 80 28 80 36V70C80 78 68 81 50 72C32 81 20 78 20 70V36Z" fill="#172033" stroke="#60A5FA" stroke-width="2.2" stroke-linejoin="round"/>
  <path d="M50 34V72M25 42C31 39 38 39 47 43M25 49C32 46 39 46 47 50M53 43C62 39 69 39 75 42M53 50C61 46 68 46 75 49" stroke="#93C5FD" stroke-width="1.3" stroke-linecap="round"/>
  <path d="M44 71C47 66 50 58 55 48C61 36 71 26 81 22C79 30 73 40 65 49C60 55 57 60 55 64Q52 69 44 71Z" fill="#60A5FA"/>
  <path d="M48 67C53 59 60 47 71 33" stroke="#E0F2FE" stroke-width="1.4" stroke-linecap="round"/>
  <text x="95" y="62" fill="#F8FAFC" font-family="Georgia, Times New Roman, serif" font-size="38" font-weight="700">Open</text>
  <text x="192" y="62" fill="#93C5FD" font-family="Georgia, Times New Roman, serif" font-size="38" font-weight="700">Write</text>
  <path d="M194 70C212 68 230 68 248 70C266 72 284 72 302 70" stroke="#60A5FA" stroke-width="3" stroke-linecap="round"/>
</svg>
